<svg xmlns="http://www.w3.org/2000/svg" xmlns:xlink="http://www.w3.org/1999/xlink" version="1.1" x="0px" y="0px" viewBox="0 0 100 125" enable-background="new 0 0 100 100" xml:space="preserve"><g><g><g><path d="M35.522,94.185H35.52C20.427,94.178,7.336,84.469,2.951,70.013c-5.452-17.969,4.73-37.027,22.697-42.483     c3.228-0.98,6.556-1.475,9.896-1.475c15.096,0,28.189,9.712,32.581,24.174c2.641,8.7,1.734,17.912-2.551,25.937     S54.133,90.061,45.431,92.703C42.2,93.681,38.866,94.185,35.522,94.185z M35.544,29.24c-3.026,0-6.046,0.45-8.969,1.337     C10.288,35.523,1.058,52.797,5.999,69.086C9.974,82.192,21.838,90.994,35.52,91h0.003c3.029,0,6.053-0.454,8.982-1.344     c7.889-2.396,14.373-7.72,18.261-14.99c3.885-7.271,4.706-15.625,2.312-23.512C61.096,38.043,49.229,29.24,35.544,29.24z"/></g></g></g><g><g><g><path d="M63.897,77.496c-0.59,0-1.16-0.336-1.433-0.902C45.816,41.985,7.609,46.11,7.233,46.159     c-0.904,0.131-1.667-0.522-1.77-1.393C5.358,43.896,5.98,43.106,6.854,43c0.395-0.05,40.828-4.485,58.478,32.214     c0.383,0.789,0.05,1.741-0.743,2.12C64.365,77.446,64.132,77.496,63.897,77.496z"/></g></g></g><g><g><g><path d="M5.579,74.199c-0.827,0-1.524-0.641-1.586-1.48c-0.594-8.261,6.423-11.867,13.209-15.357     c5.283-2.718,10.751-5.529,12.946-10.505c4.653-10.543-5.616-15.754-6.055-15.969c-0.788-0.388-1.113-1.34-0.729-2.131     c0.389-0.783,1.338-1.109,2.125-0.73c4.684,2.276,12.29,9.419,7.569,20.117c-2.649,6.009-8.896,9.218-14.402,12.048     c-6.404,3.298-11.931,6.141-11.485,12.298c0.062,0.876-0.598,1.642-1.474,1.703C5.657,74.199,5.62,74.199,5.579,74.199z"/></g></g></g><g><g><g><path d="M39.852,93.88c-0.46,0-0.917-0.199-1.231-0.585c-0.557-0.679-0.458-1.68,0.221-2.239     c5.045-4.143,5.038-11.158,5.032-18.585c-0.003-6.108-0.01-12.421,3.091-17.105c5.639-8.509,15.924-7.072,20.567-5.113     c0.812,0.336,1.19,1.27,0.852,2.077c-0.339,0.816-1.278,1.195-2.081,0.859c-0.447-0.181-11.094-4.491-16.682,3.938     c-2.572,3.88-2.566,9.447-2.563,15.338c0.006,7.844,0.016,15.954-6.194,21.056C40.566,93.761,40.209,93.88,39.852,93.88z"/></g></g></g><g><g><g><path d="M20.74,90.59c-0.249,0-0.497-0.057-0.73-0.175c-0.784-0.404-1.089-1.369-0.685-2.146l29.851-57.64     c0.403-0.783,1.374-1.088,2.146-0.685c0.783,0.404,1.088,1.366,0.685,2.146L22.155,89.731     C21.872,90.278,21.315,90.59,20.74,90.59z"/></g></g></g><g><g><g><path d="M19.083,33.72c-0.544,0-1.073-0.28-1.371-0.783c-0.448-0.758-0.196-1.734,0.56-2.183l27.884-16.482     c0.756-0.448,1.729-0.196,2.184,0.559c0.448,0.76,0.195,1.736-0.561,2.185l-27.884,16.48C19.64,33.645,19.359,33.72,19.083,33.72     z"/></g></g></g><g><g><g><path d="M53.592,13.323c-0.545,0-1.073-0.28-1.372-0.785c-0.447-0.755-0.195-1.731,0.563-2.18l7.314-4.323     c0.744-0.444,1.726-0.196,2.181,0.563c0.448,0.756,0.195,1.732-0.563,2.181L54.4,13.102     C54.148,13.252,53.868,13.323,53.592,13.323z"/></g></g></g><g><g><g><path d="M53.169,89.003c-0.545,0-1.073-0.28-1.372-0.777c-0.448-0.76-0.195-1.735,0.561-2.184l29.544-17.466     c0.753-0.441,1.733-0.192,2.184,0.561c0.448,0.758,0.195,1.735-0.56,2.183L53.98,88.785     C53.726,88.935,53.445,89.003,53.169,89.003z"/></g></g></g><g><g><g><path d="M68.256,62.506c-0.545,0-1.073-0.279-1.372-0.783c-0.448-0.759-0.195-1.736,0.563-2.185l12.907-7.625     c0.743-0.447,1.729-0.199,2.18,0.566c0.448,0.753,0.195,1.729-0.563,2.177l-12.907,7.625     C68.812,62.432,68.532,62.506,68.256,62.506z"/></g></g></g><g><g><g><path d="M86.987,51.435c-0.545,0-1.073-0.28-1.372-0.784c-0.447-0.759-0.195-1.735,0.56-2.184l9.939-5.872     c0.756-0.446,1.733-0.198,2.184,0.561c0.448,0.759,0.196,1.736-0.56,2.183l-9.939,5.872     C87.543,51.36,87.264,51.435,86.987,51.435z"/></g></g></g><g><g><g><path d="M50.78,32.843c-0.544,0-1.073-0.281-1.371-0.785c-0.448-0.756-0.196-1.732,0.562-2.18l21.615-12.776     c0.757-0.445,1.732-0.199,2.184,0.563c0.448,0.756,0.195,1.732-0.561,2.18L51.589,32.62C51.337,32.77,51.057,32.843,50.78,32.843     z"/></g></g></g><g><g><g><path d="M63.127,44.574c-0.544,0-1.073-0.281-1.371-0.778c-0.448-0.759-0.196-1.734,0.559-2.183l29.244-17.287     c0.756-0.445,1.732-0.197,2.184,0.56c0.448,0.759,0.195,1.735-0.561,2.183L63.938,44.356     C63.684,44.505,63.403,44.574,63.127,44.574z"/></g></g></g><text x="0" y="115" fill="#000000" font-size="5px" font-weight="bold" font-family="'Helvetica Neue', Helvetica, Arial-Unicode, Arial, Sans-serif">Created by Iconic</text><text x="0" y="120" fill="#000000" font-size="5px" font-weight="bold" font-family="'Helvetica Neue', Helvetica, Arial-Unicode, Arial, Sans-serif">from the Noun Project</text></svg>